<svg xmlns="http://www.w3.org/2000/svg" viewBox="0 0 96 96" fill="none">
  <defs>
    <linearGradient id="ring" x1="14" y1="20" x2="82" y2="78" gradientUnits="userSpaceOnUse">
      <stop stop-color="#FF8A1F"/><stop offset=".48" stop-color="#FF4D6D"/><stop offset="1" stop-color="#5B2EFF"/>
    </linearGradient>
    <linearGradient id="basket" x1="25" y1="37" x2="72" y2="65" gradientUnits="userSpaceOnUse">
      <stop stop-color="#FF6B4A"/><stop offset="1" stop-color="#302B7A"/>
    </linearGradient>
  </defs>
  <rect width="96" height="96" rx="22" fill="#0B1026"/>
  <path d="M48 12C65.7 12 80 26.3 80 44C80 57.9 71.1 69.7 58.7 74.1M37.4 74.2C24.9 69.9 16 58 16 44C16 26.3 30.3 12 48 12" stroke="url(#ring)" stroke-width="8" stroke-linecap="round"/>
  <path d="M48 4 52.4 17.7H43.6L48 4ZM88 44 74.4 48.4V39.6L88 44ZM8 44l13.6-4.4v8.8L8 44Z" fill="#FF8A1F"/>
  <path d="M30 38h40l-5.2 28h-30L30 38Z" fill="white" stroke="url(#basket)" stroke-width="6" stroke-linejoin="round"/>
  <path d="m34 38 6-10h22l6 10" stroke="url(#basket)" stroke-width="6" stroke-linecap="round" stroke-linejoin="round"/>
  <path d="m45 46 14 8-14 8V46Z" fill="#FF6B4A"/><circle cx="37" cy="76" r="5" fill="#302B7A"/><circle cx="63" cy="76" r="5" fill="#302B7A"/>
</svg>
