<svg xmlns="http://www.w3.org/2000/svg" viewBox="0 0 96 96" fill="none">
  <defs>
    <linearGradient id="flow" x1="12" y1="20" x2="84" y2="76" gradientUnits="userSpaceOnUse">
      <stop stop-color="#06B6D4"/>
      <stop offset=".32" stop-color="#2563EB"/>
      <stop offset=".62" stop-color="#8B5CF6"/>
      <stop offset=".82" stop-color="#EC4899"/>
      <stop offset="1" stop-color="#F59E0B"/>
    </linearGradient>
    <linearGradient id="accent" x1="18" y1="68" x2="82" y2="24" gradientUnits="userSpaceOnUse">
      <stop stop-color="#10B981"/>
      <stop offset=".55" stop-color="#06B6D4"/>
      <stop offset="1" stop-color="#8B5CF6"/>
    </linearGradient>
  </defs>
  <rect width="96" height="96" rx="24" fill="#0D1B3D"/>
  <path d="M18 29C30 14 48 18 48 34C48 50 66 50 77 37" stroke="url(#flow)" stroke-width="9" stroke-linecap="round"/>
  <path d="M18 67C30 82 48 78 48 62C48 46 66 46 78 59" stroke="url(#accent)" stroke-width="9" stroke-linecap="round"/>
  <circle cx="18" cy="29" r="10" fill="#10B981"/>
  <path d="M14 29h8M16 25l-4 4 4 4M20 25l4 4-4 4" stroke="white" stroke-width="2.6" stroke-linecap="round" stroke-linejoin="round"/>
  <circle cx="48" cy="48" r="14" fill="white" stroke="url(#flow)" stroke-width="5"/>
  <path d="M44 39.5 57 48l-13 8.5v-17Z" fill="#8B5CF6"/>
  <circle cx="78" cy="59" r="10" fill="#F59E0B"/>
  <path d="M73 63V57M78 63V53M83 63V49" stroke="white" stroke-width="2.8" stroke-linecap="round"/>
  <path d="M80 31h8v-8m-1 1L77 34" stroke="#EC4899" stroke-width="4" stroke-linecap="round" stroke-linejoin="round"/>
</svg>
